<mxfile host="app.diagrams.net" agent="Mozilla/5.0 (Windows NT 10.0; Win64; x64) AppleWebKit/537.36 (KHTML, like Gecko) Chrome/139.0.0.0 Safari/537.36 Edg/139.0.0.0" version="28.1.1">
  <diagram name="Page-1" id="m0tTITPAMlGMEODDCuPM">
    <mxGraphModel dx="60" dy="2158" grid="1" gridSize="12" guides="1" tooltips="1" connect="1" arrows="1" fold="1" page="1" pageScale="1" pageWidth="850" pageHeight="1100" math="0" shadow="0">
      <root>
        <mxCell id="0" />
        <mxCell id="1" parent="0" />
        <mxCell id="lACa1mFGaf2mxa2fbCJX-1" value="⚙️ Configuration &amp; Setup" style="whiteSpace=wrap;strokeWidth=2;verticalAlign=top;fontSize=21;fontStyle=1" parent="1" vertex="1">
          <mxGeometry x="2668" y="684" width="261" height="404" as="geometry" />
        </mxCell>
        <mxCell id="lACa1mFGaf2mxa2fbCJX-2" value="main.dart&#xa;App Entry + Init" style="whiteSpace=wrap;strokeWidth=2;fontSize=21;fontStyle=1" parent="lACa1mFGaf2mxa2fbCJX-1" vertex="1">
          <mxGeometry x="52" y="43" width="172" height="78" as="geometry" />
        </mxCell>
        <mxCell id="lACa1mFGaf2mxa2fbCJX-3" value=".env&#xa;API Keys &amp;amp; Config" style="whiteSpace=wrap;strokeWidth=2;fontSize=21;fontStyle=1" parent="lACa1mFGaf2mxa2fbCJX-1" vertex="1">
          <mxGeometry x="46" y="171" width="186" height="78" as="geometry" />
        </mxCell>
        <mxCell id="lACa1mFGaf2mxa2fbCJX-4" value="pubspec.yaml&#xa;Dependencies" style="whiteSpace=wrap;strokeWidth=2;fontSize=21;fontStyle=1" parent="lACa1mFGaf2mxa2fbCJX-1" vertex="1">
          <mxGeometry x="59" y="299" width="159" height="78" as="geometry" />
        </mxCell>
        <mxCell id="lACa1mFGaf2mxa2fbCJX-21" value="🔧 Tool Services Layer " style="whiteSpace=wrap;strokeWidth=2;fontSize=21;fontStyle=1" parent="1" vertex="1">
          <mxGeometry x="2364" y="1284" width="1255" height="912" as="geometry" />
        </mxCell>
        <mxCell id="lACa1mFGaf2mxa2fbCJX-31" value="🎯 Tool Orchestration Layer" style="whiteSpace=wrap;strokeWidth=2;fontSize=21;fontStyle=1" parent="1" vertex="1">
          <mxGeometry x="3264" y="540" width="348" height="648" as="geometry" />
        </mxCell>
        <mxCell id="lACa1mFGaf2mxa2fbCJX-38" value="🧠 LLM Provider Layer " style="whiteSpace=wrap;strokeWidth=2;fontSize=21;fontStyle=1" parent="1" vertex="1">
          <mxGeometry x="3780" y="1296" width="957" height="672" as="geometry" />
        </mxCell>
        <mxCell id="lACa1mFGaf2mxa2fbCJX-44" value="⚙️ Service Layer (Business Logic)" style="whiteSpace=wrap;strokeWidth=2;fontSize=21;fontStyle=1" parent="1" vertex="1">
          <mxGeometry x="3744" y="672" width="485.5" height="582" as="geometry" />
        </mxCell>
        <mxCell id="lACa1mFGaf2mxa2fbCJX-45" value="🎨 UI Layer (Widgets)" style="whiteSpace=wrap;strokeWidth=2;fontSize=21;fontStyle=1" parent="1" vertex="1">
          <mxGeometry x="4272" y="666" width="603" height="588" as="geometry" />
        </mxCell>
        <mxCell id="lACa1mFGaf2mxa2fbCJX-46" value="tasks_chat_screen.dart&#xa;Main Chat Interface" style="whiteSpace=wrap;strokeWidth=2;fontSize=20;fontStyle=1;fillColor=#f0a30a;fontColor=#000000;strokeColor=#BD7000;" parent="1" vertex="1">
          <mxGeometry x="4428" y="846" width="227" height="78" as="geometry" />
        </mxCell>
        <mxCell id="lACa1mFGaf2mxa2fbCJX-47" value="chat_input_widget.dart&#xa;User Input" style="whiteSpace=wrap;strokeWidth=2;fontSize=20;fontStyle=1;fillColor=#b0e3e6;strokeColor=#0e8088;" parent="1" vertex="1">
          <mxGeometry x="4320" y="1116" width="230" height="78" as="geometry" />
        </mxCell>
        <mxCell id="lACa1mFGaf2mxa2fbCJX-48" value="tasks_title_widget.dart&#xa;Header" style="whiteSpace=wrap;strokeWidth=2;fontSize=20;fontStyle=1;fillColor=#0050ef;fontColor=#ffffff;strokeColor=#001DBC;" parent="1" vertex="1">
          <mxGeometry x="4620" y="708" width="228" height="78" as="geometry" />
        </mxCell>
        <mxCell id="lACa1mFGaf2mxa2fbCJX-49" value="chat_response_widget.dart&#xa;Response Display" style="whiteSpace=wrap;strokeWidth=2;fontSize=19;fontStyle=1;fillColor=#b0e3e6;strokeColor=#0e8088;" parent="1" vertex="1">
          <mxGeometry x="4608" y="1116" width="255" height="78" as="geometry" />
        </mxCell>
        <mxCell id="lACa1mFGaf2mxa2fbCJX-50" value="chat_service.dart&#xa;Orchestrates Chat Flow" style="whiteSpace=wrap;strokeWidth=2;fontSize=21;fontStyle=1;fillColor=#f0a30a;fontColor=#000000;strokeColor=#BD7000;" parent="1" vertex="1">
          <mxGeometry x="3872.75" y="768" width="228" height="78" as="geometry" />
        </mxCell>
        <mxCell id="lACa1mFGaf2mxa2fbCJX-51" value="llm_service.dart&#xa;LLM API Coordination" style="whiteSpace=wrap;strokeWidth=2;fontSize=21;fontStyle=1;fillColor=#b0e3e6;strokeColor=#0e8088;" parent="1" vertex="1">
          <mxGeometry x="3892.5" y="1068" width="211" height="78" as="geometry" />
        </mxCell>
        <mxCell id="lACa1mFGaf2mxa2fbCJX-52" value="base_llm_provider.dart&#xa;Abstract Provider Interface" style="whiteSpace=wrap;strokeWidth=2;fontSize=21;fontStyle=1;fillColor=#fad7ac;strokeColor=#b46504;" parent="1" vertex="1">
          <mxGeometry x="4107.5" y="1500" width="254" height="78" as="geometry" />
        </mxCell>
        <mxCell id="lACa1mFGaf2mxa2fbCJX-53" value="openai_provider.dart&#xa;OpenAI GPT-4" style="whiteSpace=wrap;strokeWidth=2;fontSize=21;fontStyle=1;fillColor=#b1ddf0;strokeColor=#10739e;" parent="1" vertex="1">
          <mxGeometry x="4452" y="1812" width="210" height="78" as="geometry" />
        </mxCell>
        <mxCell id="lACa1mFGaf2mxa2fbCJX-54" value="deepseek_provider.dart&#xa;DeepSeek API" style="whiteSpace=wrap;strokeWidth=2;fontSize=21;fontStyle=1;fillColor=#b1ddf0;strokeColor=#10739e;" parent="1" vertex="1">
          <mxGeometry x="4120" y="1812" width="229" height="78" as="geometry" />
        </mxCell>
        <mxCell id="lACa1mFGaf2mxa2fbCJX-55" value="llama_provider.dart&#xa;Llama Models" style="whiteSpace=wrap;strokeWidth=2;fontSize=21;fontStyle=1;fillColor=#b0e3e6;strokeColor=#0e8088;" parent="1" vertex="1">
          <mxGeometry x="3828" y="1812" width="202" height="78" as="geometry" />
        </mxCell>
        <mxCell id="lACa1mFGaf2mxa2fbCJX-56" value="tool_orchestrator.dart&#xa;Central Tool Coordinator" style="whiteSpace=wrap;strokeWidth=2;fontSize=21;fontStyle=1;fillColor=#f0a30a;fontColor=#000000;strokeColor=#BD7000;" parent="1" vertex="1">
          <mxGeometry x="3324" y="568" width="236" height="78" as="geometry" />
        </mxCell>
        <mxCell id="lACa1mFGaf2mxa2fbCJX-57" value="tool_registry.dart&#xa;Service Registration" style="whiteSpace=wrap;strokeWidth=2;fontSize=21;fontStyle=1;fillColor=#b0e3e6;strokeColor=#0e8088;" parent="1" vertex="1">
          <mxGeometry x="3341" y="960" width="202" height="78" as="geometry" />
        </mxCell>
        <mxCell id="lACa1mFGaf2mxa2fbCJX-58" value="base_tool_service.dart&#xa;Abstract Tool Service Base" style="whiteSpace=wrap;strokeWidth=2;fontSize=21;fontStyle=1;fillColor=#f0a30a;fontColor=#000000;strokeColor=#BD7000;" parent="1" vertex="1">
          <mxGeometry x="2839" y="1440" width="248" height="78" as="geometry" />
        </mxCell>
        <mxCell id="lACa1mFGaf2mxa2fbCJX-59" value="email_tool_service.dart&#xa;Email" style="whiteSpace=wrap;strokeWidth=2;fontSize=20;fontStyle=1;fillColor=#b0e3e6;strokeColor=#0e8088;" parent="1" vertex="1">
          <mxGeometry x="3252" y="1824" width="231" height="78" as="geometry" />
        </mxCell>
        <mxCell id="lACa1mFGaf2mxa2fbCJX-60" value="todo_tool_service.dart&#xa;Todos" style="whiteSpace=wrap;strokeWidth=2;fontSize=21;fontStyle=1;fillColor=#b0e3e6;strokeColor=#0e8088;" parent="1" vertex="1">
          <mxGeometry x="2975" y="1824" width="250" height="78" as="geometry" />
        </mxCell>
        <mxCell id="lACa1mFGaf2mxa2fbCJX-61" value="calendar_tool_service.dart&#xa;Calendar" style="whiteSpace=wrap;strokeWidth=2;fontSize=19;fontStyle=1;fillColor=#b0e3e6;strokeColor=#0e8088;" parent="1" vertex="1">
          <mxGeometry x="2676" y="1824" width="253" height="78" as="geometry" />
        </mxCell>
        <mxCell id="lACa1mFGaf2mxa2fbCJX-62" value="file_tool_service.dart&#xa;File Operations" style="whiteSpace=wrap;strokeWidth=2;fontSize=21;fontStyle=1;fillColor=#b0e3e6;strokeColor=#0e8088;" parent="1" vertex="1">
          <mxGeometry x="2400" y="1824" width="233" height="78" as="geometry" />
        </mxCell>
        <mxCell id="lACa1mFGaf2mxa2fbCJX-63" value="" style="curved=1;startArrow=none;endArrow=block;entryX=1;entryY=0.3;rounded=0;fontSize=21;fontStyle=1;exitX=0;exitY=0.5;exitDx=0;exitDy=0;" parent="1" source="lACa1mFGaf2mxa2fbCJX-46" target="lACa1mFGaf2mxa2fbCJX-50" edge="1">
          <mxGeometry relative="1" as="geometry">
            <Array as="points">
              <mxPoint x="4380" y="768" />
            </Array>
            <mxPoint x="4788" y="240" as="sourcePoint" />
          </mxGeometry>
        </mxCell>
        <mxCell id="lACa1mFGaf2mxa2fbCJX-64" value="" style="curved=1;startArrow=none;endArrow=block;exitX=0.476;exitY=0;entryX=1.007;entryY=0.923;rounded=0;fontSize=21;fontStyle=1;exitDx=0;exitDy=0;exitPerimeter=0;entryDx=0;entryDy=0;entryPerimeter=0;" parent="1" source="lACa1mFGaf2mxa2fbCJX-47" target="lACa1mFGaf2mxa2fbCJX-50" edge="1">
          <mxGeometry relative="1" as="geometry">
            <Array as="points">
              <mxPoint x="4296" y="1020" />
              <mxPoint x="4236" y="1020" />
              <mxPoint x="4212" y="984" />
            </Array>
          </mxGeometry>
        </mxCell>
        <mxCell id="lACa1mFGaf2mxa2fbCJX-65" value="" style="curved=1;startArrow=none;endArrow=block;exitX=1;exitY=0.16;rounded=0;fontSize=21;fontStyle=1;entryX=0.608;entryY=0;entryDx=0;entryDy=0;entryPerimeter=0;" parent="1" source="lACa1mFGaf2mxa2fbCJX-50" target="lACa1mFGaf2mxa2fbCJX-46" edge="1">
          <mxGeometry relative="1" as="geometry">
            <Array as="points">
              <mxPoint x="4368" y="696" />
              <mxPoint x="4500" y="768" />
              <mxPoint x="4500" y="744" />
            </Array>
            <mxPoint x="4692" y="288" as="targetPoint" />
          </mxGeometry>
        </mxCell>
        <mxCell id="lACa1mFGaf2mxa2fbCJX-66" value="" style="curved=1;startArrow=none;endArrow=block;entryX=0.14;entryY=0;rounded=0;fontSize=21;fontStyle=1;exitX=1;exitY=0.75;exitDx=0;exitDy=0;" parent="1" source="lACa1mFGaf2mxa2fbCJX-50" target="lACa1mFGaf2mxa2fbCJX-49" edge="1">
          <mxGeometry relative="1" as="geometry">
            <Array as="points">
              <mxPoint x="4320" y="912" />
            </Array>
          </mxGeometry>
        </mxCell>
        <mxCell id="lACa1mFGaf2mxa2fbCJX-67" value="" style="curved=1;startArrow=none;endArrow=block;exitX=0.53;exitY=1;entryX=0.5;entryY=0;rounded=0;fontSize=21;fontStyle=1" parent="1" source="lACa1mFGaf2mxa2fbCJX-50" target="lACa1mFGaf2mxa2fbCJX-51" edge="1">
          <mxGeometry relative="1" as="geometry">
            <Array as="points" />
          </mxGeometry>
        </mxCell>
        <mxCell id="lACa1mFGaf2mxa2fbCJX-68" value="" style="curved=1;startArrow=none;endArrow=block;exitX=0.5;exitY=1;entryX=0.5;entryY=0;rounded=0;fontSize=21;fontStyle=1;entryDx=0;entryDy=0;" parent="1" source="lACa1mFGaf2mxa2fbCJX-51" target="x_c6HsH0VmMExQvb54hx-4" edge="1">
          <mxGeometry relative="1" as="geometry">
            <Array as="points" />
          </mxGeometry>
        </mxCell>
        <mxCell id="lACa1mFGaf2mxa2fbCJX-69" value="" style="curved=1;startArrow=none;endArrow=block;exitX=0.64;exitY=1;entryX=0.5;entryY=0;rounded=0;fontSize=21;fontStyle=1" parent="1" source="lACa1mFGaf2mxa2fbCJX-52" target="lACa1mFGaf2mxa2fbCJX-53" edge="1">
          <mxGeometry relative="1" as="geometry">
            <Array as="points">
              <mxPoint x="4476" y="1656" />
            </Array>
          </mxGeometry>
        </mxCell>
        <mxCell id="lACa1mFGaf2mxa2fbCJX-70" value="" style="curved=1;startArrow=none;endArrow=block;exitX=0.5;exitY=1;entryX=0.5;entryY=0;rounded=0;fontSize=21;fontStyle=1" parent="1" source="lACa1mFGaf2mxa2fbCJX-52" target="lACa1mFGaf2mxa2fbCJX-54" edge="1">
          <mxGeometry relative="1" as="geometry">
            <Array as="points" />
          </mxGeometry>
        </mxCell>
        <mxCell id="lACa1mFGaf2mxa2fbCJX-71" value="" style="curved=1;startArrow=none;endArrow=block;exitX=0.34;exitY=1;entryX=0.5;entryY=0;rounded=0;fontSize=21;fontStyle=1" parent="1" source="lACa1mFGaf2mxa2fbCJX-52" target="lACa1mFGaf2mxa2fbCJX-55" edge="1">
          <mxGeometry relative="1" as="geometry">
            <Array as="points">
              <mxPoint x="4056" y="1608" />
            </Array>
          </mxGeometry>
        </mxCell>
        <mxCell id="lACa1mFGaf2mxa2fbCJX-72" value="" style="curved=1;startArrow=none;endArrow=block;exitX=0;exitY=0.59;entryX=1;entryY=0.5;rounded=0;fontSize=21;fontStyle=1;entryDx=0;entryDy=0;" parent="1" source="lACa1mFGaf2mxa2fbCJX-50" target="lACa1mFGaf2mxa2fbCJX-56" edge="1">
          <mxGeometry relative="1" as="geometry">
            <Array as="points" />
          </mxGeometry>
        </mxCell>
        <mxCell id="lACa1mFGaf2mxa2fbCJX-73" value="" style="curved=1;startArrow=none;endArrow=block;exitX=0.5;exitY=1;entryX=0.5;entryY=0;rounded=0;fontSize=21;fontStyle=1" parent="1" source="lACa1mFGaf2mxa2fbCJX-56" target="lACa1mFGaf2mxa2fbCJX-57" edge="1">
          <mxGeometry relative="1" as="geometry">
            <Array as="points" />
          </mxGeometry>
        </mxCell>
        <mxCell id="lACa1mFGaf2mxa2fbCJX-74" value="" style="curved=1;startArrow=none;endArrow=block;exitX=0.46;exitY=1;entryX=0.84;entryY=0;rounded=0;fontSize=21;fontStyle=1" parent="1" source="lACa1mFGaf2mxa2fbCJX-56" target="lACa1mFGaf2mxa2fbCJX-58" edge="1">
          <mxGeometry relative="1" as="geometry">
            <Array as="points">
              <mxPoint x="3158" y="1413" />
            </Array>
          </mxGeometry>
        </mxCell>
        <mxCell id="lACa1mFGaf2mxa2fbCJX-75" value="" style="curved=1;startArrow=none;endArrow=block;exitX=0.72;exitY=1;entryX=0.5;entryY=0;rounded=0;fontSize=21;fontStyle=1" parent="1" source="lACa1mFGaf2mxa2fbCJX-58" target="lACa1mFGaf2mxa2fbCJX-59" edge="1">
          <mxGeometry relative="1" as="geometry">
            <Array as="points">
              <mxPoint x="3252" y="1716" />
            </Array>
          </mxGeometry>
        </mxCell>
        <mxCell id="lACa1mFGaf2mxa2fbCJX-76" value="" style="curved=1;startArrow=none;endArrow=block;exitX=0.57;exitY=1;entryX=0.5;entryY=0;rounded=0;fontSize=21;fontStyle=1" parent="1" source="lACa1mFGaf2mxa2fbCJX-58" target="lACa1mFGaf2mxa2fbCJX-60" edge="1">
          <mxGeometry relative="1" as="geometry">
            <Array as="points">
              <mxPoint x="3012" y="1692" />
            </Array>
          </mxGeometry>
        </mxCell>
        <mxCell id="lACa1mFGaf2mxa2fbCJX-77" value="" style="curved=1;startArrow=none;endArrow=block;exitX=0.42;exitY=1;entryX=0.5;entryY=0;rounded=0;fontSize=21;fontStyle=1" parent="1" edge="1">
          <mxGeometry relative="1" as="geometry">
            <Array as="points">
              <mxPoint x="2880" y="1644" />
              <mxPoint x="2832" y="1728" />
            </Array>
            <mxPoint x="2939.16" y="1434" as="sourcePoint" />
            <mxPoint x="2798.5" y="1824" as="targetPoint" />
          </mxGeometry>
        </mxCell>
        <mxCell id="lACa1mFGaf2mxa2fbCJX-78" value="" style="curved=1;startArrow=none;endArrow=block;exitX=0.28;exitY=1;entryX=0.5;entryY=0;rounded=0;fontSize=21;fontStyle=1" parent="1" source="lACa1mFGaf2mxa2fbCJX-58" target="lACa1mFGaf2mxa2fbCJX-62" edge="1">
          <mxGeometry relative="1" as="geometry">
            <Array as="points">
              <mxPoint x="2604" y="1728" />
            </Array>
          </mxGeometry>
        </mxCell>
        <mxCell id="x_c6HsH0VmMExQvb54hx-2" value="todo_model.dart&#xa;model" style="whiteSpace=wrap;strokeWidth=2;fontSize=21;fontStyle=1;fillColor=#b0e3e6;strokeColor=#0e8088;" vertex="1" parent="1">
          <mxGeometry x="2975" y="1932" width="250" height="78" as="geometry" />
        </mxCell>
        <mxCell id="x_c6HsH0VmMExQvb54hx-3" value="email_model.dart&#xa;model" style="whiteSpace=wrap;strokeWidth=2;fontSize=21;fontStyle=1;fillColor=#b0e3e6;strokeColor=#0e8088;" vertex="1" parent="1">
          <mxGeometry x="3252" y="1932" width="250" height="78" as="geometry" />
        </mxCell>
        <mxCell id="x_c6HsH0VmMExQvb54hx-5" value="" style="edgeStyle=orthogonalEdgeStyle;rounded=0;orthogonalLoop=1;jettySize=auto;html=1;" edge="1" parent="1" source="x_c6HsH0VmMExQvb54hx-4" target="lACa1mFGaf2mxa2fbCJX-52">
          <mxGeometry relative="1" as="geometry" />
        </mxCell>
        <mxCell id="x_c6HsH0VmMExQvb54hx-4" value="llm_models.dart" style="whiteSpace=wrap;strokeWidth=2;fontSize=21;fontStyle=1;fillColor=#fad7ac;strokeColor=#b46504;" vertex="1" parent="1">
          <mxGeometry x="4095" y="1356" width="254" height="78" as="geometry" />
        </mxCell>
      </root>
    </mxGraphModel>
  </diagram>
</mxfile>
